<svg xmlns="http://www.w3.org/2000/svg" viewBox="0 0 192 192" fill="none">
  <defs>
    <linearGradient id="ig1" x1="96" y1="40" x2="96" y2="152" gradientUnits="userSpaceOnUse">
      <stop stop-color="#4FE6F1"/>
      <stop offset="0.495" stop-color="#A6A6DE"/>
      <stop offset="1" stop-color="#ED90CF"/>
    </linearGradient>
    <linearGradient id="ig2" x1="130" y1="50" x2="130" y2="80" gradientUnits="userSpaceOnUse">
      <stop stop-color="#4FE6F1"/>
      <stop offset="1" stop-color="#A6A6DE"/>
    </linearGradient>
  </defs>
  <rect width="192" height="192" rx="42" fill="#0a0a12"/>
  <!-- Scaled infinity symbol from logo -->
  <g transform="translate(-104, -108) scale(0.74)">
    <path d="M303.807 185.081C302.355 185.219 301.017 185.929 300.088 187.053C299.159 188.178 298.715 189.625 298.853 191.078C298.991 192.53 299.701 193.867 300.825 194.797C301.95 195.726 303.398 196.17 304.85 196.032C311.829 195.362 318.859 195.938 325.448 197.905C329.983 199.256 334.471 201.318 338.021 203.9C342.163 207.32 347.022 213.104 349.699 218.244C352.482 223.553 353.422 229.394 353.835 236.211C354.147 240.716 354.048 245.142 353.264 249.293C352.12 255.536 349.257 261.045 344.889 265.843C339.569 271.859 333.563 276.227 326.319 278.471C306.329 285.459 285.237 279.559 268.281 266.29C241.507 244.795 217.262 218.298 188.772 195.96C177.168 187.76 164.321 182.691 149.775 182.151C132.43 181.864 113.394 188.582 102.998 204.397C99.231 210.1 97.013 216.714 96.2643 223.289C95.7239 228.636 95.6137 233.958 97.5767 239.794C97.6308 239.944 97.6868 240.094 97.7446 240.243C99.6232 247.538 106.584 255.529 113.569 258.677C114.155 258.979 114.836 259.088 115.488 258.94C116.14 258.792 116.706 258.406 117.066 257.858C117.426 257.31 117.557 256.638 117.434 255.981C117.311 255.324 116.941 254.741 116.431 254.323C110.62 249.547 107.587 244.954 106.252 237.407C106.231 237.321 106.212 237.234 106.192 237.146C105.451 233.63 105.782 229.013 106.549 224.802C107.517 219.579 109.379 214.706 112.19 210.44C119.78 198.714 134.977 192.882 149.62 193.15C160.779 193.434 172.942 198.113 182.173 204.761C209.425 226.087 233.342 252.299 261.731 275.127C279.622 289.567 306.712 297.336 329.644 288.957C338.838 286.188 347.117 280.022 353.058 273.21C358.513 267.296 362.644 259.43 364.073 251.334C365.086 245.952 365.163 240.606 364.808 235.45C364.41 228.471 363.222 220.255 359.483 213.218C355.496 205.958 351.206 200.632 344.552 195.049C339.52 191.414 334.19 189.058 328.59 187.363C320.531 184.956 312.047 184.29 303.807 185.081Z" fill="url(#ig1)"/>
    <path d="M304.85 196.032C306.309 195.964 307.652 195.315 308.581 194.19C309.51 193.066 309.949 191.557 309.804 190.035C309.659 188.513 308.944 187.114 307.819 186.186C306.694 185.256 305.253 184.873 303.807 185.081C302.72 185.233 301.638 185.41 300.564 185.61C299.314 185.842 298.074 186.106 296.845 186.4C278.67 191.429 264.359 201.296 251.09 213.041C250.31 213.799 249.571 214.541 248.795 215.471C248.379 215.984 248.183 216.656 248.236 217.329C248.29 218.002 248.588 218.62 249.08 219.06C249.571 219.5 250.218 219.728 250.894 219.707C251.568 219.685 252.215 219.416 252.678 218.946C253.267 218.363 253.982 217.761 254.729 217.165C267.837 207.479 283.611 199.124 298.803 196.587C299.888 196.436 300.973 196.312 302.057 196.216C302.989 196.133 303.92 196.072 304.85 196.032Z" fill="url(#ig2)"/>
  </g>
</svg>