<svg width="543" height="321" viewBox="0 0 543 321" fill="none" xmlns="http://www.w3.org/2000/svg">
<path d="M210.886 146.108C211.91 145.425 212.72 145.084 213.318 145.084C214.086 145.084 214.47 145.468 214.47 146.236C214.47 146.919 213.958 147.985 212.934 149.436C211.91 150.887 210.544 152.38 208.838 153.916C207.216 155.452 205.382 156.775 203.333 157.884C201.286 158.993 199.195 159.548 197.062 159.548C192.624 159.548 189.638 158.225 188.102 155.58C186.566 152.849 185.798 148.796 185.798 143.42V102.204H185.286C183.408 102.289 181.574 102.417 179.782 102.588C177.99 102.673 177.094 102.716 177.094 102.716C175.984 102.716 175.046 102.161 174.278 101.052C173.51 99.8573 173.126 98.8333 173.126 97.98C173.126 97.1267 173.552 96.7 174.406 96.7H185.798V89.916C185.798 89.0627 185.755 87.74 185.67 85.948C185.67 84.156 185.627 82.3213 185.542 80.444C185.542 78.5667 185.542 77.1587 185.542 76.22C185.542 75.452 186.182 75.068 187.462 75.068C188.571 75.068 189.766 75.4093 191.046 76.092C192.326 76.6893 192.966 77.5 192.966 78.524C192.966 79.2067 192.923 80.2733 192.838 81.724C192.838 83.0893 192.795 84.54 192.71 86.076C192.71 87.612 192.71 88.892 192.71 89.916V96.316L196.55 96.188C198.086 96.1027 199.878 95.9747 201.926 95.804C203.974 95.6333 205.424 95.5053 206.278 95.42H206.406C207.43 95.42 208.326 95.9747 209.094 97.084C209.862 98.108 210.246 99.0893 210.246 100.028C210.246 101.052 209.819 101.564 208.966 101.564C208.112 101.564 206.491 101.564 204.102 101.564C201.712 101.564 199.664 101.607 197.958 101.692L192.71 101.948V143.676C192.71 147.26 193.051 149.649 193.734 150.844C194.416 152.039 195.696 152.636 197.574 152.636C199.366 152.636 201.371 152.081 203.59 150.972C205.808 149.863 208.027 148.412 210.246 146.62L210.886 146.108ZM231.667 131.772V132.156C231.667 139.153 233.245 144.401 236.403 147.9C239.645 151.399 243.443 153.148 247.795 153.148C253.341 153.148 258.376 152.167 262.899 150.204C267.507 148.156 271.517 145.297 274.931 141.628C275.955 140.519 276.851 139.964 277.619 139.964C278.301 139.964 278.643 140.391 278.643 141.244C278.643 142.012 278.003 143.377 276.723 145.34C275.443 147.303 273.523 149.393 270.963 151.612C268.488 153.745 265.288 155.623 261.363 157.244C257.523 158.78 253 159.548 247.795 159.548C243.443 159.548 239.517 158.481 236.019 156.348C232.605 154.129 229.875 151.015 227.827 147.004C225.779 142.908 224.755 138.087 224.755 132.54V130.62C222.963 129.425 222.067 128.145 222.067 126.78C222.067 125.756 222.792 125.244 224.243 125.244C224.413 125.244 224.669 125.244 225.01 125.244C225.437 125.159 225.651 125.116 225.651 125.116C226.163 122.044 227.315 118.801 229.107 115.388C230.984 111.975 233.331 108.775 236.147 105.788C238.963 102.801 242.163 100.369 245.747 98.492C249.331 96.5293 253.213 95.548 257.395 95.548C262.6 95.548 266.739 96.444 269.811 98.236C272.883 100.028 275.059 102.332 276.339 105.148C277.704 107.964 278.387 110.908 278.387 113.98C278.387 116.455 278.088 118.503 277.491 120.124C276.893 121.745 275.699 123.153 273.907 124.348C272.2 125.457 269.64 126.567 266.227 127.676C262.387 128.785 257.693 129.767 252.147 130.62C246.6 131.388 240.285 131.772 233.203 131.772H231.667ZM235.251 125.5C241.736 125.5 247.24 125.159 251.763 124.476C256.371 123.793 260.125 123.025 263.027 122.172C265.672 121.404 267.549 120.679 268.659 119.996C269.853 119.313 270.621 118.503 270.963 117.564C271.304 116.625 271.475 115.388 271.475 113.852C271.475 110.097 270.237 107.153 267.763 105.02C265.288 102.801 261.789 101.692 257.267 101.692C254.109 101.692 251.123 102.503 248.307 104.124C245.491 105.66 242.973 107.665 240.755 110.14C238.621 112.615 236.829 115.217 235.378 117.948C233.928 120.679 232.989 123.196 232.562 125.5H235.251ZM298.095 110.524C298.095 109.671 298.052 108.348 297.967 106.556C297.881 104.764 297.796 102.929 297.711 101.052C297.711 99.1747 297.711 97.7667 297.711 96.828C297.711 96.06 298.351 95.676 299.631 95.676C300.825 95.676 302.063 96.0173 303.343 96.7C304.623 97.2973 305.263 98.108 305.263 99.132C305.263 100.156 305.22 101.436 305.135 102.972C305.135 104.423 305.135 105.916 305.135 107.452C306.841 104.209 309.487 101.436 313.071 99.132C316.74 96.7427 320.836 95.548 325.359 95.548C327.663 95.548 329.924 95.9747 332.143 96.828C334.361 97.596 336.196 98.5773 337.647 99.772C339.097 100.881 339.823 101.991 339.823 103.1C339.823 104.295 339.439 105.532 338.671 106.812C337.903 108.092 337.092 108.732 336.239 108.732C335.556 108.732 334.959 108.305 334.447 107.452C333.593 105.745 332.143 104.508 330.095 103.74C328.047 102.972 326.34 102.588 324.975 102.588C321.305 102.588 317.721 103.825 314.223 106.3C310.724 108.775 308.249 112.359 306.799 117.052C306.201 119.015 305.775 121.148 305.519 123.452C305.263 125.756 305.092 128.529 305.007 131.772C305.007 135.015 305.007 139.068 305.007 143.932C305.007 146.577 305.049 149.137 305.135 151.612C305.305 154.087 305.391 156.049 305.391 157.5C305.391 158.268 304.751 158.652 303.471 158.652C302.361 158.652 301.124 158.311 299.759 157.628C298.479 157.031 297.839 156.22 297.839 155.196C297.839 154.513 297.839 153.404 297.839 151.868C297.924 150.247 297.967 148.668 297.967 147.132C298.052 145.596 298.095 144.529 298.095 143.932V110.524ZM397.383 119.868C397.383 116.455 397.041 113.425 396.359 110.78C395.761 108.135 394.609 106.044 392.903 104.508C391.281 102.972 388.849 102.204 385.607 102.204C382.62 102.204 379.548 102.844 376.391 104.124C373.233 105.404 370.375 107.409 367.815 110.14C365.255 112.785 363.335 116.284 362.055 120.636C361.031 124.049 360.433 127.889 360.263 132.156C360.177 136.337 360.092 140.305 360.007 144.06V145.852C360.007 148.241 360.049 150.503 360.135 152.636C360.305 154.684 360.391 156.348 360.391 157.628C360.391 158.396 359.751 158.78 358.471 158.78C357.361 158.78 356.124 158.439 354.759 157.756C353.479 157.159 352.839 156.348 352.839 155.324C352.839 154.641 352.839 153.532 352.839 151.996C352.924 150.375 352.967 148.796 352.967 147.26C353.052 145.724 353.095 144.657 353.095 144.06V110.78C353.095 109.927 353.052 108.604 352.967 106.812C352.881 105.02 352.796 103.185 352.711 101.308C352.711 99.4307 352.711 98.0227 352.711 97.084C352.711 96.316 353.351 95.932 354.631 95.932C355.825 95.932 357.063 96.2733 358.343 96.956C359.623 97.5533 360.263 98.364 360.263 99.388C360.263 100.071 360.263 101.18 360.263 102.716C360.263 104.167 360.22 105.703 360.135 107.324C360.135 108.945 360.135 110.353 360.135 111.548C361.841 108.049 364.06 105.148 366.791 102.844C369.607 100.455 372.636 98.6627 375.879 97.468C379.207 96.188 382.449 95.548 385.607 95.548C389.703 95.548 392.988 96.316 395.463 97.852C397.937 99.3027 399.815 101.223 401.095 103.612C402.375 106.001 403.228 108.604 403.655 111.42C404.081 114.151 404.295 116.796 404.295 119.356V144.06C404.295 144.572 404.337 145.724 404.423 147.516C404.508 149.308 404.551 151.185 404.551 153.148C404.636 155.111 404.679 156.604 404.679 157.628C404.679 158.396 404.039 158.78 402.759 158.78C401.649 158.78 400.412 158.439 399.047 157.756C397.767 157.159 397.127 156.348 397.127 155.324C397.127 154.641 397.127 153.617 397.127 152.252C397.212 150.801 397.255 149.308 397.255 147.772C397.34 146.236 397.383 144.999 397.383 144.06V119.868ZM433.721 80.444C432.099 80.444 430.649 79.7187 429.369 78.268C428.174 76.732 427.577 75.196 427.577 73.66C427.577 72.0387 427.961 70.7587 428.729 69.82C429.582 68.8813 430.819 68.412 432.441 68.412C433.891 68.412 435.257 69.18 436.537 70.716C437.817 72.1667 438.457 73.7453 438.457 75.452C438.457 78.78 436.878 80.444 433.721 80.444ZM429.625 110.396C429.625 109.543 429.582 108.22 429.497 106.428C429.411 104.636 429.326 102.801 429.241 100.924C429.241 99.0467 429.241 97.6387 429.241 96.7C429.241 96.0173 429.881 95.676 431.161 95.676C432.355 95.676 433.593 96.0173 434.873 96.7C436.238 97.2973 436.921 98.0653 436.921 99.004C436.921 99.6867 436.878 100.753 436.793 102.204C436.793 103.569 436.75 105.02 436.665 106.556C436.665 108.092 436.665 109.372 436.665 110.396V144.06C436.665 144.572 436.707 145.724 436.793 147.516C436.878 149.308 436.921 151.185 436.921 153.148C437.006 155.111 437.049 156.604 437.049 157.628C437.049 158.311 436.409 158.652 435.128 158.652C434.019 158.652 432.782 158.311 431.417 157.628C430.051 157.031 429.369 156.263 429.369 155.324C429.369 154.641 429.369 153.532 429.369 151.996C429.454 150.375 429.497 148.796 429.497 147.26C429.582 145.724 429.625 144.657 429.625 144.06V110.396ZM512.274 99.004C512.018 100.881 511.762 103.399 511.506 106.556C511.335 109.628 511.164 112.913 510.994 116.412C510.908 119.825 510.823 123.025 510.738 126.012C510.652 128.999 510.61 131.26 510.61 132.796C510.61 133.905 510.652 135.655 510.738 138.044C510.908 140.348 511.292 142.865 511.89 145.596C512.572 148.327 513.639 150.844 515.09 153.148C515.26 153.489 515.346 153.788 515.346 154.044C515.346 154.983 514.876 156.049 513.938 157.244C513.084 158.353 512.06 158.908 510.866 158.908C510.012 158.908 509.159 158.311 508.306 157.116C507.538 155.836 506.812 154.257 506.13 152.38C505.532 150.417 505.02 148.455 504.594 146.492C504.167 144.529 503.911 142.823 503.826 141.372C500.754 147.601 496.828 152.209 492.05 155.196C487.356 158.097 482.578 159.548 477.714 159.548C471.57 159.548 466.62 157.5 462.866 153.404C459.196 149.223 457.362 143.121 457.362 135.1C457.362 129.724 458.258 124.647 460.05 119.868C461.927 115.089 464.359 110.865 467.346 107.196C470.418 103.527 473.788 100.668 477.458 98.62C481.212 96.572 484.967 95.548 488.722 95.548C491.879 95.548 494.866 96.316 497.682 97.852C500.583 99.388 502.716 101.777 504.082 105.02C504.167 103.057 504.21 101.351 504.21 99.9C504.295 98.364 504.338 97.2973 504.338 96.7C504.338 95.932 505.063 95.548 506.514 95.548C507.708 95.548 508.946 95.8467 510.226 96.444C511.591 97.0413 512.274 97.8093 512.274 98.748V99.004ZM504.082 108.092C503.911 108.433 503.57 108.732 503.058 108.988C502.631 109.244 502.204 109.372 501.778 109.372C501.266 109.372 500.882 109.201 500.626 108.86C499.004 106.385 497.127 104.593 494.994 103.484C492.86 102.289 490.812 101.692 488.85 101.692C486.034 101.692 483.175 102.545 480.274 104.252C477.458 105.873 474.855 108.177 472.466 111.164C470.076 114.151 468.156 117.649 466.706 121.66C465.34 125.585 464.658 129.852 464.658 134.46C464.658 141.031 465.895 145.809 468.37 148.796C470.844 151.697 473.959 153.148 477.714 153.148C481.98 153.148 486.034 151.783 489.874 149.052C493.799 146.321 497.042 142.481 499.602 137.532C502.162 132.583 503.57 126.823 503.826 120.252C503.911 118.972 503.954 117.18 503.954 114.876C503.954 112.487 503.996 110.225 504.082 108.092Z" fill="black"/>
<path d="M6.5 111.681C23.944 111.681 47.3013 107.358 72.7282 97.7892M72.7282 97.7892C60.0666 50.3608 120.33 -19.26 147.53 16.2095C160.244 47.8364 120.118 79.9553 72.7282 97.7892ZM72.7282 97.7892C78.2978 118.652 104.832 129.85 151.078 123.8" stroke="black" stroke-width="13" stroke-linecap="round"/>
<path d="M152.426 291.245C154.112 290.887 155.588 289.875 156.528 288.43C157.467 286.985 157.795 285.225 157.438 283.539C157.08 281.852 156.068 280.377 154.623 279.437C153.177 278.497 151.418 278.17 149.732 278.527C149.732 278.527 149.732 278.527 149.732 278.527C145.396 279.445 141.041 280.054 136.682 280.334C104.99 283.043 70.0528 263.646 61.9053 234.032L61.9567 234.269C49.3202 185.63 93.5976 146.345 139.386 133.664C143.727 132.317 148.1 131.135 152.506 130.141C154.188 129.763 155.651 128.732 156.572 127.275C157.494 125.818 157.799 124.054 157.42 122.373C157.041 120.691 156.01 119.228 154.553 118.307C153.096 117.385 151.333 117.08 149.651 117.459C149.651 117.459 149.651 117.459 149.651 117.459C144.873 118.536 140.186 119.805 135.533 121.248C87.6496 133.673 34.3007 180.333 49.2034 236.789L49.2548 237.026C60.413 275.616 100.822 295.973 137.513 293.307C142.525 292.986 147.504 292.287 152.426 291.245Z" fill="black"/>
<path d="M149.731 278.527C148.028 278.804 146.537 279.746 145.598 281.193C144.658 282.637 144.345 284.466 144.719 286.233C145.093 287.999 146.121 289.545 147.566 290.483C149.011 291.425 150.756 291.682 152.425 291.245C152.425 291.245 152.425 291.245 152.425 291.245C153.67 290.923 154.913 290.578 156.15 290.212C178.429 283.582 197.517 270.562 213.712 255.475C214.623 254.626 215.501 253.79 216.396 252.925C216.959 252.38 217.286 251.614 217.318 250.812C217.349 250.01 217.084 249.238 216.566 248.65C216.047 248.062 215.315 247.702 214.515 247.632C213.716 247.564 212.915 247.791 212.303 248.281C212.303 248.281 212.303 248.281 212.303 248.281C211.36 249.037 210.435 249.763 209.481 250.5C192.512 263.607 173.323 273.957 153.095 277.927C151.973 278.148 150.85 278.348 149.731 278.527Z" fill="black"/>
<g filter="url(#filter0_d_36_288)">
<path d="M303.807 185.081C302.355 185.219 301.017 185.929 300.088 187.053C299.159 188.178 298.715 189.625 298.853 191.078C298.991 192.53 299.701 193.867 300.825 194.797C301.95 195.726 303.398 196.17 304.85 196.032C304.85 196.032 304.85 196.032 304.85 196.032C311.829 195.362 318.859 195.938 325.448 197.905C329.983 199.256 334.471 201.318 338.021 203.9C342.163 207.32 347.022 213.104 349.699 218.244C352.482 223.553 353.422 229.394 353.835 236.211C354.147 240.716 354.048 245.142 353.264 249.293C352.12 255.536 349.257 261.045 344.889 265.843C339.569 271.859 333.563 276.227 326.319 278.471C306.329 285.459 285.237 279.559 268.281 266.29C241.507 244.795 217.262 218.298 188.772 195.96C177.168 187.76 164.321 182.691 149.775 182.151C132.43 181.864 113.394 188.582 102.998 204.397C99.231 210.1 97.013 216.714 96.2643 223.289C95.7239 228.636 95.6137 233.958 97.5767 239.794C97.6308 239.944 97.6868 240.094 97.7446 240.243C99.6232 247.538 106.584 255.529 113.569 258.677C114.155 258.979 114.836 259.088 115.488 258.94C116.14 258.792 116.706 258.406 117.066 257.858C117.426 257.31 117.557 256.638 117.434 255.981C117.311 255.324 116.941 254.741 116.431 254.323C116.431 254.323 116.431 254.323 116.431 254.323C110.62 249.547 107.587 244.954 106.252 237.407C106.231 237.321 106.212 237.234 106.192 237.146C105.451 233.63 105.782 229.013 106.549 224.802C107.517 219.579 109.379 214.706 112.19 210.44C119.78 198.714 134.977 192.882 149.62 193.15C160.779 193.434 172.942 198.113 182.173 204.761C209.425 226.087 233.342 252.299 261.731 275.127C279.622 289.567 306.712 297.336 329.644 288.957C338.838 286.188 347.117 280.022 353.058 273.21C358.513 267.296 362.644 259.43 364.073 251.334C365.086 245.952 365.163 240.606 364.808 235.45C364.41 228.471 363.222 220.255 359.483 213.218C355.496 205.958 351.206 200.632 344.552 195.049C339.52 191.414 334.19 189.058 328.59 187.363C320.531 184.956 312.047 184.29 303.807 185.081Z" fill="url(#paint0_linear_36_288)"/>
<path d="M304.85 196.032C306.309 195.964 307.652 195.315 308.581 194.19C309.51 193.066 309.949 191.557 309.804 190.035C309.659 188.513 308.944 187.114 307.819 186.186C306.694 185.256 305.253 184.873 303.807 185.081C303.807 185.081 303.807 185.081 303.807 185.081C302.72 185.233 301.638 185.41 300.564 185.61C299.314 185.842 298.074 186.106 296.845 186.4C278.67 191.429 264.359 201.296 251.09 213.041C250.31 213.799 249.571 214.541 248.795 215.471C248.379 215.984 248.183 216.656 248.236 217.329C248.29 218.002 248.588 218.62 249.08 219.06C249.571 219.5 250.218 219.728 250.894 219.707C251.568 219.685 252.215 219.416 252.678 218.946C252.678 218.946 252.678 218.946 252.678 218.946C253.267 218.363 253.982 217.761 254.729 217.165C267.837 207.479 283.611 199.124 298.803 196.587C299.888 196.436 300.973 196.312 302.057 196.216C302.989 196.133 303.92 196.072 304.85 196.032Z" fill="url(#paint1_linear_36_288)"/>
</g>
<defs>
<filter id="filter0_d_36_288" x="81.3243" y="169.543" width="310.276" height="151.463" filterUnits="userSpaceOnUse" color-interpolation-filters="sRGB">
<feFlood flood-opacity="0" result="BackgroundImageFix"/>
<feColorMatrix in="SourceAlpha" type="matrix" values="0 0 0 0 0 0 0 0 0 0 0 0 0 0 0 0 0 0 127 0" result="hardAlpha"/>
<feOffset dx="6" dy="8"/>
<feGaussianBlur stdDeviation="10.3"/>
<feComposite in2="hardAlpha" operator="out"/>
<feColorMatrix type="matrix" values="0 0 0 0 0 0 0 0 0 0 0 0 0 0 0 0 0 0 0.25 0"/>
<feBlend mode="normal" in2="BackgroundImageFix" result="effect1_dropShadow_36_288"/>
<feBlend mode="normal" in="SourceGraphic" in2="effect1_dropShadow_36_288" result="shape"/>
</filter>
<linearGradient id="paint0_linear_36_288" x1="230.202" y1="187.645" x2="230.202" y2="286.984" gradientUnits="userSpaceOnUse">
<stop stop-color="#4FE6F1"/>
<stop offset="0.495192" stop-color="#A6A6DE"/>
<stop offset="1" stop-color="#ED90CF"/>
</linearGradient>
<linearGradient id="paint1_linear_36_288" x1="277.532" y1="190.556" x2="277.532" y2="217.209" gradientUnits="userSpaceOnUse">
<stop stop-color="#4FE6F1"/>
<stop offset="1" stop-color="#A6A6DE"/>
</linearGradient>
</defs>
</svg>
